# xmcd
#
# Track frame offsets: 
#        182
#        13577
#        25270
#        36562
#        51272
#        62270
#        73020
#        85937
#        98427
#        108912
#        122552
#        132885
#        147490
#        160082
#        174360
#        187807
#        200025
#        213592
#        225412
#        238182
#        251047
#        263450
#        274820
#        288470
#        302027
#        316242
#        333397
#        344245
#
# Disc length: 4735 seconds
#
# Revision: 2
# Processed by: cddbd v1.5.2PL0 Copyright (c) Steve Scherf et al.
# Submitted via: ExactAudioCopy v0.95b4
#
DISCID=98127d1c
DTITLE=Lefty Frizzell - Life's Like Poetry - Disc 09 of 12
DYEAR=1992
DGENRE=Country
TTITLE0=Honky Tonk Stardust Cowboy (1971)
TTITLE1=What Am I Gonna Do (1971)
TTITLE2=Give Me More, More, More (Of Your Kisses) (recorded 1972 - rel
TTITLE2=eased 1992)
TTITLE3=You Babe (1972)
TTITLE4=This Just Ain't a Good Day for Leavin' (recorded 1972 - releas
TTITLE4=ed 1992)
TTITLE5=Down by the Railroad Track (recorded 1972 - released 1975)
TTITLE6=Let Me Give Her the Flowers (recorded 1972 - released 1973)
TTITLE7=If I Had Half the Sense (A Fool Was Born With) (recorded 1972 
TTITLE7=released 1973)
TTITLE8=Somebody's Words (recorded 1972 - released 1973)
TTITLE9=Lucky Arms (recorded 1972 - released 1973)
TTITLE10=True Love Needs to Be in Touch (recorded 1972 - released 1984
TTITLE10=)
TTITLE11=My House Is Your Honky Tonk (recorded 1972 - released 1975)
TTITLE12=I Buy the Wine (recorded 1972 - released 1973)
TTITLE13=If She Just Helps Me Get over You (recorded 1972 - released 1
TTITLE13=973)
TTITLE14=Falling (recorded 1972 - released 1973)
TTITLE15=Railroad Lady (recorded 1972 - released 1973)
TTITLE16=I Can't Get over You to Save My Life (1973)
TTITLE17=I Never Go Around Mirrors (I've Got a Heartache to Hide) (197
TTITLE17=3)
TTITLE18=That's the Way Love Goes (1973)
TTITLE19=She Found the Key (recorded 1974 - released 1975)
TTITLE20=I Wonder Who's Building the Bridge (recorded 1974 - released 
TTITLE20=1984)
TTITLE21=My Wishing Room (recorded 1974 - released 1975)
TTITLE22=I'm Gonna Hang Out My Mind Today (recorded 1974 - released 19
TTITLE22=84)
TTITLE23=Sittin' and Thinkin' (recorded 1974 - released 1975)
TTITLE24=I Love You a Thousand Ways (recorded 1974 - released 1975)
TTITLE25=I'm Not That Good at Goodbye (recorded 1974 - released 1975)
TTITLE26=Yesterday Just Passed My Way Again (recorded 1974 - released 
TTITLE26=1975)
TTITLE27=Life's Like Poetry (recorded 1974 - released 1975)
EXTD=Life's Like Poetry - Disc 09 of 12\n© 1992 Bear Family Records
EXTT0=
EXTT1=
EXTT2=
EXTT3=
EXTT4=
EXTT5=
EXTT6=
EXTT7=
EXTT8=
EXTT9=
EXTT10=
EXTT11=
EXTT12=
EXTT13=
EXTT14=
EXTT15=
EXTT16=
EXTT17=
EXTT18=
EXTT19=
EXTT20=
EXTT21=
EXTT22=
EXTT23=
EXTT24=
EXTT25=
EXTT26=
EXTT27=
PLAYORDER=
